<svg width="366" height="156" viewBox="0 0 366 156" fill="none" xmlns="http://www.w3.org/2000/svg">
<path d="M52.2569 155.7C42.2624 155.7 32.4821 154.201 22.916 151.202C13.4926 148.061 5.85392 143.992 0 138.995L10.4942 113.937C23.3443 123.361 37.051 128.072 51.6144 128.072C59.7528 128.072 66.0351 126.073 70.4612 122.076C75.0301 118.078 77.3146 112.724 77.3146 106.013C77.3146 99.1597 75.1015 93.6627 70.6754 89.5222C66.392 85.3816 60.5381 83.3113 53.1136 83.3113C42.4052 83.3113 33.2674 87.3805 25.7001 95.5189H4.28336V2.35584H99.8022V29.5552H36.1944V63.3937C43.1905 58.8248 51.6144 56.5403 61.4662 56.5403C71.0323 56.5403 79.3849 58.6106 86.5238 62.7512C93.6627 66.749 99.2311 72.3887 103.229 79.6704C107.227 86.9521 109.226 95.3761 109.226 104.942C109.226 115.08 106.941 123.932 102.372 131.499C97.8033 139.066 91.2355 144.992 82.6688 149.275C74.1021 153.558 63.9648 155.7 52.2569 155.7Z" fill="#1A2732"/>
<path d="M180.46 155.7C162.184 155.7 148.192 148.918 138.483 135.354C128.917 121.79 124.134 102.444 124.134 77.3146C124.134 52.1856 128.917 33.0532 138.483 19.9176C148.192 6.6392 162.184 0 180.46 0C198.735 0 212.656 6.6392 222.223 19.9176C231.931 33.0532 236.786 52.1856 236.786 77.3146C236.786 102.444 231.931 121.79 222.223 135.354C212.656 148.918 198.735 155.7 180.46 155.7ZM180.46 128.715C188.741 128.715 194.88 124.646 198.878 116.507C202.876 108.226 204.875 95.1619 204.875 77.3146C204.875 59.4673 202.876 46.6172 198.878 38.7644C194.88 30.9116 188.741 26.9851 180.46 26.9851C172.179 26.9851 166.039 30.9116 162.041 38.7644C158.044 46.6172 156.045 59.4673 156.045 77.3146C156.045 95.1619 158.044 108.226 162.041 116.507C166.039 124.646 172.179 128.715 180.46 128.715Z" fill="#1A2732"/>
<path d="M308.877 155.7C290.601 155.7 276.609 148.918 266.9 135.354C257.334 121.79 252.551 102.444 252.551 77.3146C252.551 52.1856 257.334 33.0532 266.9 19.9176C276.609 6.6392 290.601 0 308.877 0C327.152 0 341.073 6.6392 350.64 19.9176C360.348 33.0532 365.203 52.1856 365.203 77.3146C365.203 102.444 360.348 121.79 350.64 135.354C341.073 148.918 327.152 155.7 308.877 155.7ZM308.877 128.715C317.158 128.715 323.297 124.646 327.295 116.507C331.293 108.226 333.292 95.1619 333.292 77.3146C333.292 59.4673 331.293 46.6172 327.295 38.7644C323.297 30.9116 317.158 26.9851 308.877 26.9851C300.596 26.9851 294.456 30.9116 290.458 38.7644C286.461 46.6172 284.462 59.4673 284.462 77.3146C284.462 95.1619 286.461 108.226 290.458 116.507C294.456 124.646 300.596 128.715 308.877 128.715Z" fill="#1A2732"/>
</svg>
