<svg width="24" height="24" viewBox="0 0 24 24" fill="none" xmlns="http://www.w3.org/2000/svg">
<path d="M1.88739 6.07133C1.41312 6.07133 1.02682 5.68859 1.02682 5.21399L1.01535 1.865C1.01535 1.63535 1.10332 1.41719 1.26778 1.25644C1.43225 1.09569 1.64643 1 1.87592 1H5.18816C5.66243 1 6.04873 1.38657 6.04873 1.86117C6.04873 2.33577 5.66626 2.72234 5.19199 2.72234H2.74031L2.74796 5.20634C2.74796 5.68093 2.36166 6.0675 1.88739 6.07133Z" fill="#67737E"/>
<path d="M6.06781 22.1314C6.06781 22.606 5.68533 22.9925 5.21106 22.9925L1.8644 23.0002C1.63491 23.0002 1.4169 22.9122 1.25626 22.7476C1.09562 22.583 1 22.3687 1 22.1429V18.8283C1 18.3537 1.3863 17.9671 1.86057 17.9671C2.33484 17.9671 2.72114 18.3499 2.72114 18.8245V21.2779L5.20341 21.2702C5.67768 21.2702 6.06398 21.653 6.06781 22.1314Z" fill="#67737E"/>
<path d="M22.9771 5.21399C22.9771 5.68859 22.5908 6.07133 22.1165 6.07133C21.6384 6.0675 21.256 5.68093 21.256 5.20634L21.2636 2.72234H18.8119C18.3377 2.72234 17.9552 2.33577 17.9552 1.86117C17.9552 1.38657 18.3415 1 18.8158 1H22.128C22.3537 1 22.5678 1.09569 22.7323 1.25644C22.8968 1.41719 22.9847 1.63535 22.9847 1.865L22.9771 5.21399Z" fill="#67737E"/>
<path d="M17.9362 22.1309C17.9362 22.6055 18.3186 22.9921 18.7929 22.9921L22.1396 22.9997C22.3691 22.9997 22.5871 22.9117 22.7477 22.7471C22.9083 22.5825 23.0001 22.3644 23.0001 22.1386V18.824C23.0001 18.3494 22.6138 17.9629 22.1396 17.9629C21.6653 17.9629 21.279 18.3494 21.279 18.824V21.2774L18.7967 21.2697C18.3225 21.2697 17.9362 21.6525 17.9362 22.1309Z" fill="#67737E"/>
<path d="M6.0754 4.41049H4.38103V19.6207H6.0754V4.41049Z" fill="#67737E"/>
<path d="M8.22491 4.41053H7.19222V19.6207H8.22491V4.41053Z" fill="#67737E"/>
<path d="M8.86364 4.41053H9.37999V19.6207H8.86364V4.41053Z" fill="#67737E"/>
<path d="M11.5716 4.41053H9.87721V19.6207H11.5716V4.41053Z" fill="#67737E"/>
<path d="M12.6846 4.41053H13.7173V19.6207H12.6846V4.41053Z" fill="#67737E"/>
<path d="M14.8762 4.41053H14.3598V19.6207H14.8762V4.41053Z" fill="#67737E"/>
<path d="M15.3696 4.41053H17.0639V19.6207H15.3696V4.41053Z" fill="#67737E"/>
<path d="M18.4676 4.41053H17.4349V19.6207H18.4676V4.41053Z" fill="#67737E"/>
<path d="M19.1102 4.41053H19.6265V19.6207H19.1102V4.41053Z" fill="#67737E"/>
</svg>
