<svg width="203" height="177" viewBox="0 0 203 177" fill="none" xmlns="http://www.w3.org/2000/svg">
<circle cx="114.5" cy="88.5" r="88.5" fill="#FFF6D6" fill-opacity="0.7"/>
<path d="M0 65.3457L7.38782 69.6915L7.53268 105.617L0.579437 101.271L0 65.3457Z" fill="#233443"/>
<path d="M79.3828 111.121L86.7706 115.467L86.6258 151.392L79.3828 147.046V111.121Z" fill="#233443"/>
<path d="M25.2051 80.1215L32.7378 84.586L32.2947 113.439L25.2051 109.554V80.1215Z" fill="#233443"/>
<path d="M43.168 90.5513L50.7007 95.0159V124.159L43.168 119.984V90.5513Z" fill="#233443"/>
<path d="M61.1309 100.981L68.6635 105.446V134.588L61.1309 130.414V100.981Z" fill="#233443"/>
<path d="M10.7188 71.7196L14.63 73.8925V103.444L10.7188 101.152V71.7196Z" fill="#233443"/>
<path d="M17.9629 75.7755L21.8741 77.9484V107.5L17.9629 105.208V75.7755Z" fill="#233443"/>
<path d="M35.9258 86.2053L39.837 88.3782V117.93L35.9258 115.638V86.2053Z" fill="#233443"/>
<path d="M54.1777 96.925L57.6544 99.088V128.504L54.1777 126.223V96.925Z" fill="#233443"/>
<path d="M72.1406 107.065L75.907 109.518V138.934L72.1406 136.363V107.065Z" fill="#233443"/>
<path d="M92.1302 38.5466L0.144531 58.2475C29.9855 75.6789 90.6816 111.237 94.7376 114.018C98.7937 116.8 98.504 119.813 98.504 125.317V151.537L134.139 76.21L135.123 52.7283C135.225 50.2831 133.614 48.0957 131.248 47.469L113.424 42.7476L92.1302 38.5466Z" fill="url(#paint0_linear_3724_193065)"/>
<path d="M164.495 68.8751L144.649 73.6931M144.649 73.6931L139.434 74.9592C136.778 75.7317 129.931 76.8134 123.789 74.9592C116.112 72.6414 103.075 68.5854 96.2662 65.833C89.4578 63.0807 86.4765 62.2724 86.3653 58.827C86.2205 54.3364 86.648 54.038 86.8504 48.542C87.2345 38.1121 87.7194 37.5855 95.1072 36.1369C102.495 34.6883 117.705 31.2117 123.789 30.7771C129.873 30.3425 139.434 28.5119 154.499 32.6602C162.496 34.8621 167.149 36.3953 169.515 37.2645C174.15 38.9674 178.038 42.705 178.981 46.7116C180.814 54.5027 181.115 62.4166 182.986 77.3905C184.342 88.238 185.07 99.0382 185.287 104.486C185.347 105.984 184.75 107.422 183.681 108.473L176.808 115.23C174.874 116.358 173.571 117.227 169.515 116.937C164.099 116.55 158.36 116.358 156.767 111.722C155.173 107.087 153.341 99.1507 152.616 94.9498C151.892 90.7488 151.227 87.1955 149.379 86.8064C146.627 86.227 146.387 84.9545 145.663 81.333C145.084 78.4358 144.746 75.0326 144.649 73.6931Z" stroke="#42688A" stroke-width="1.2" stroke-linecap="round" stroke-linejoin="round"/>
<path d="M144.744 73.6241C144.841 74.9635 145.179 78.3667 145.758 81.2639C146.482 84.8854 146.722 86.1579 149.474 86.7373C151.181 86.374 154.826 85.5894 155.753 85.3577C156.912 85.068 158.071 84.1988 157.926 81.7362C157.781 79.2736 157.347 77.1007 156.912 74.6381C156.565 72.668 155.995 71.4029 155.753 71.0166" stroke="#42688A" stroke-width="1.2" stroke-linecap="round" stroke-linejoin="round"/>
<path d="M91.4404 42.6307C91.5046 41.5632 92.5083 40.8063 93.5523 41.038L111.137 44.9421L128.193 49.3316C129.745 49.7311 130.823 51.1399 130.803 52.7425L130.583 70.1403C130.566 71.5088 129.231 72.471 127.928 72.0516C123.999 70.7868 116.191 68.3003 108.24 65.9252C101.225 63.8298 94.7726 61.3308 91.9383 60.1926C91.0259 59.8262 90.4613 58.9164 90.5203 57.935L91.4404 42.6307Z" stroke="#42688A" stroke-width="1.2" stroke-linecap="round" stroke-linejoin="round"/>
<path d="M92.4492 38.7129C97.7607 39.2923 107.573 41.1465 113.599 42.769C119.625 44.3914 129.823 47.2113 133.01 48.5633" stroke="#42688A" stroke-width="1.2" stroke-linecap="round" stroke-linejoin="round"/>
<path d="M110.846 33.0636C115.578 33.643 123.014 35.5047 132.14 38.1122C138.221 39.8495 145.26 42.5442 149.32 44.2259C151.025 44.9322 152.293 46.3949 152.561 48.221C152.886 50.4354 153.145 53.5807 153.145 57.6682C153.145 63.481 151.841 69.8096 151.551 72.0307" stroke="#42688A" stroke-width="1.2" stroke-linecap="round" stroke-linejoin="round"/>
<path d="M136.922 48.8532L172.123 41.3206" stroke="#42688A" stroke-width="1.2" stroke-linecap="round" stroke-linejoin="round"/>
<path d="M134.603 51.1709C135.037 60.8765 134.603 70.2708 134.023 72.2988" stroke="#42688A" stroke-width="1.2" stroke-linejoin="round"/>
<path d="M95.0567 41.4438C94.7669 46.6588 94.1875 56.1444 94.1875 57.5447" stroke="#42688A" stroke-width="1.2" stroke-linejoin="round"/>
<path d="M90.8555 59.1383L94.1872 57.5448C96.6498 58.6071 103.458 60.7681 109.832 62.7382C117.799 65.2008 127.07 67.9747 130.547 68.5541" stroke="#42688A" stroke-width="1.2" stroke-linejoin="round"/>
<path d="M130.547 59.2831L99.2575 51.3158C98.6781 51.171 97.9828 51.171 98.0987 50.0121C98.2146 48.8532 99.2575 49.1429 99.8369 49.2878L130.547 57.1102" stroke="#42688A" stroke-width="1.2" stroke-linejoin="round"/>
<path d="M151.117 88.9577C151.455 89.1025 152.682 88.7474 154.884 88.3998C157.085 88.0521 158.408 87.5789 158.795 87.3857" stroke="#42688A" stroke-width="1.2" stroke-linejoin="round"/>
<path d="M159.375 71.5747C159.81 72.299 160.186 75.2757 160.534 78.4046C160.882 81.5336 160.968 83.3083 160.824 84.4672" stroke="#42688A" stroke-width="1.2" stroke-linejoin="round"/>
<path d="M150.972 84.1991C150.827 82.5573 150.451 78.7813 150.103 76.8112C149.756 74.8411 149.475 73.0932 149.379 72.4655" stroke="#42688A" stroke-width="1.2" stroke-linejoin="round"/>
<path d="M166.762 69.8578C167.631 73.7207 169.659 83.7933 170.818 93.1801C171.977 102.567 172.846 111.577 173.136 114.909" stroke="#42688A" stroke-width="1.2" stroke-linejoin="round"/>
<path d="M164.154 116.647L166.762 130.119C167.003 131.327 168.181 133.77 170.963 133.886C174.439 134.031 178.495 133.306 179.365 132.727C180.234 132.147 182.117 132.003 181.972 128.381C181.856 125.484 181.634 115.392 181.537 110.708" stroke="#42688A" stroke-width="1.2" stroke-linejoin="round"/>
<path d="M167.342 118.965C168.308 119.448 171.803 120.008 174.005 119.544C176.207 119.081 177.772 117.903 178.786 117.227" stroke="#42688A" stroke-width="1.2" stroke-linejoin="round"/>
<path d="M168.5 122.088C169.356 122.594 172.453 123.18 174.404 122.695C176.355 122.21 177.742 120.977 178.64 120.269" stroke="#42688A" stroke-width="1.2" stroke-linejoin="round"/>
<path d="M168.5 125.855C169.356 126.36 172.453 126.946 174.404 126.461C176.355 125.976 177.742 125.322 178.64 124.615" stroke="#42688A" stroke-width="1.2" stroke-linejoin="round"/>
<path d="M169.08 129.331C169.936 129.837 173.033 130.423 174.984 129.938C176.935 129.452 178.322 128.799 179.22 128.091" stroke="#42688A" stroke-width="1.2" stroke-linejoin="round"/>
<path d="M170.529 133.596C170.288 135.576 170.5 142.519 173.281 154.456" stroke="#42688A" stroke-width="1.2" stroke-linejoin="round"/>
<path d="M178.495 133.016C178.254 134.996 178.495 142 179.999 148" stroke="#42688A" stroke-width="1.2" stroke-linejoin="round"/>
<defs>
<linearGradient id="paint0_linear_3724_193065" x1="133.415" y1="60.2755" x2="94.3031" y2="133.429" gradientUnits="userSpaceOnUse">
<stop stop-color="#FECB18"/>
<stop offset="1" stop-color="#FFF6D6" stop-opacity="0.03"/>
</linearGradient>
</defs>
</svg>
