<svg width="36" height="35" viewBox="0 0 36 35" fill="none" xmlns="http://www.w3.org/2000/svg">
<path d="M35.9251 10.1221V8.21382V7.88195H35.8974C35.8698 7.6607 35.8145 7.46711 35.7315 7.24586L33.1595 1.16155C32.8553 0.470151 32.2192 0 31.5278 0H4.42495C3.73355 0 3.09747 0.470151 2.79325 1.18921L0.221249 7.27352C0.165937 7.4118 0.138281 7.52242 0.0829687 7.6607L0.0276576 7.63304V7.96492C1.68757e-06 8.15851 1.68757e-06 8.3521 0.0276576 8.54569V9.95615C1.68757e-06 10.0944 0 10.2327 0 10.3986C0 12.3069 1.60405 13.828 3.59527 13.828C5.5865 13.828 7.19055 12.2792 7.19055 10.3986C7.19055 12.3069 8.79459 13.828 10.7858 13.828C12.7771 13.828 14.3811 12.2792 14.3811 10.3986C14.3811 12.3069 15.9851 13.828 17.9764 13.828C19.9676 13.828 21.5716 12.2792 21.5716 10.3986C21.5716 12.3069 23.1757 13.828 25.1669 13.828C27.1582 13.828 28.7622 12.2792 28.7622 10.3986C28.7622 12.3069 30.3662 13.828 32.3575 13.828C34.3487 13.828 35.9527 12.2792 35.9527 10.3986C35.9527 10.288 35.9251 10.205 35.9251 10.1221Z" fill="#222221"/>
<path d="M2.69238 32.5089C2.69238 33.8928 3.80194 35 5.18889 35H30.5574C32.02 35 33.2052 33.8174 33.2052 32.358V17.3616C33.2052 16.6822 32.6756 16.1538 31.9948 16.1538H30.6331C29.9522 16.1538 29.4226 16.6822 29.4226 17.3616V22.3688C29.4226 23.8281 28.2374 25.0107 26.7748 25.0107H9.19842C7.78626 25.0107 6.65149 23.8785 6.65149 22.4694V17.4119C6.65149 16.7325 6.09671 16.179 5.41584 16.179H3.95324C3.24716 16.179 2.69238 16.7325 2.69238 17.4371V32.5089Z" fill="#222221"/>
</svg>
