<svg width="294" height="177" viewBox="0 0 294 177" fill="none" xmlns="http://www.w3.org/2000/svg">
<mask id="path-1-inside-1_1_16" fill="white">
<path d="M14.5836 94.825L21.8752 90.6031C22.9845 89.9678 23.9061 89.0504 24.5464 87.944C25.1866 86.8375 25.5229 85.5815 25.5211 84.3031C25.5451 82.994 25.22 81.7021 24.5792 80.5602C23.9385 79.4184 23.0051 78.4678 21.8752 77.8062L14.5836 73.5917C11.2374 71.6565 8.79635 68.4721 7.79688 64.7381C6.79741 61.0041 7.32128 57.0261 9.25336 53.6781L20.1034 34.8583C21.0609 33.1989 22.3361 31.7444 23.856 30.578C25.376 29.4116 27.1108 28.5561 28.9615 28.0605C30.8122 27.5648 32.7423 27.4386 34.6418 27.6892C36.5412 27.9398 38.3727 28.5622 40.0315 29.5208L47.8627 34.0635C48.8117 34.603 49.8846 34.8867 50.9763 34.8867C52.0679 34.8867 53.1408 34.603 54.0898 34.0635L55.2127 33.4146C56.1612 32.8687 56.949 32.0825 57.4969 31.1353C58.0448 30.188 58.3334 29.1131 58.3336 28.0187V18.5833C58.3336 14.7156 59.87 11.0063 62.6049 8.27136C65.3398 5.53645 69.0492 4 72.9169 4H94.7919C98.6596 4 102.369 5.53645 105.104 8.27136C107.839 11.0063 109.375 14.7156 109.375 18.5833V27.45C109.391 28.7238 109.738 29.9715 110.382 31.0708C111.025 32.1701 111.944 33.0832 113.047 33.7207C114.149 34.3582 115.399 34.698 116.673 34.707C117.947 34.716 119.201 34.3937 120.313 33.7719L127.677 29.5208C129.337 28.5639 131.168 27.9433 133.068 27.6944C134.967 27.4455 136.897 27.5732 138.746 28.0702C140.596 28.5672 142.33 29.4238 143.849 30.591C145.368 31.7582 146.642 33.2132 147.598 34.8729L158.463 53.6708C159.42 55.3298 160.041 57.161 160.29 59.06C160.54 60.9589 160.413 62.8884 159.916 64.7383C159.42 66.5882 158.564 68.3221 157.398 69.8412C156.231 71.3603 154.777 72.6347 153.118 73.5917L145.826 77.8135C144.72 78.4523 143.801 79.3704 143.161 80.4761C142.521 81.5817 142.183 82.8361 142.18 84.1135C142.155 85.422 142.479 86.7136 143.12 87.8545C143.761 88.9955 144.695 89.9445 145.826 90.6031L153.118 94.825C154.777 95.782 156.231 97.0564 157.398 98.5755C158.564 100.095 159.42 101.828 159.916 103.678C160.413 105.528 160.54 107.458 160.29 109.357C160.041 111.256 159.42 113.087 158.463 114.746L147.613 133.544C145.679 136.893 142.494 139.337 138.758 140.338C135.022 141.339 131.041 140.815 127.692 138.881L120.335 134.637C119.223 134.018 117.97 133.698 116.698 133.707C115.425 133.717 114.177 134.057 113.075 134.693C111.973 135.329 111.055 136.24 110.41 137.337C109.766 138.434 109.417 139.68 109.397 140.952V149.833C109.397 153.701 107.861 157.41 105.126 160.145C102.391 162.88 98.6815 164.417 94.8138 164.417H72.9388C69.071 164.417 65.3617 162.88 62.6268 160.145C59.8919 157.41 58.3554 153.701 58.3554 149.833V140.967C58.3535 139.7 58.0191 138.457 57.3857 137.36C56.7523 136.263 55.8421 135.352 54.7461 134.718C53.6363 134.059 52.3723 133.705 51.0818 133.691C49.7913 133.676 48.52 134.003 47.3961 134.637L40.0315 138.896C38.3715 139.855 36.5387 140.477 34.6379 140.728C32.7371 140.978 30.8056 140.851 28.954 140.353C27.1024 139.856 25.367 138.999 23.847 137.831C22.3271 136.662 21.0524 135.205 20.0961 133.544L9.23877 114.746C8.28156 113.087 7.66051 111.256 7.41107 109.357C7.16163 107.458 7.2887 105.528 7.78502 103.678C8.28134 101.828 9.13719 100.095 10.3037 98.5755C11.4702 97.0564 12.9245 95.782 14.5836 94.825Z"/>
</mask>
<path d="M14.5836 94.825L21.8752 90.6031C22.9845 89.9678 23.9061 89.0504 24.5464 87.944C25.1866 86.8375 25.5229 85.5815 25.5211 84.3031C25.5451 82.994 25.22 81.7021 24.5792 80.5602C23.9385 79.4184 23.0051 78.4678 21.8752 77.8062L14.5836 73.5917C11.2374 71.6565 8.79635 68.4721 7.79688 64.7381C6.79741 61.0041 7.32128 57.0261 9.25336 53.6781L20.1034 34.8583C21.0609 33.1989 22.3361 31.7444 23.856 30.578C25.376 29.4116 27.1108 28.5561 28.9615 28.0605C30.8122 27.5648 32.7423 27.4386 34.6418 27.6892C36.5412 27.9398 38.3727 28.5622 40.0315 29.5208L47.8627 34.0635C48.8117 34.603 49.8846 34.8867 50.9763 34.8867C52.0679 34.8867 53.1408 34.603 54.0898 34.0635L55.2127 33.4146C56.1612 32.8687 56.949 32.0825 57.4969 31.1353C58.0448 30.188 58.3334 29.1131 58.3336 28.0187V18.5833C58.3336 14.7156 59.87 11.0063 62.6049 8.27136C65.3398 5.53645 69.0492 4 72.9169 4H94.7919C98.6596 4 102.369 5.53645 105.104 8.27136C107.839 11.0063 109.375 14.7156 109.375 18.5833V27.45C109.391 28.7238 109.738 29.9715 110.382 31.0708C111.025 32.1701 111.944 33.0832 113.047 33.7207C114.149 34.3582 115.399 34.698 116.673 34.707C117.947 34.716 119.201 34.3937 120.313 33.7719L127.677 29.5208C129.337 28.5639 131.168 27.9433 133.068 27.6944C134.967 27.4455 136.897 27.5732 138.746 28.0702C140.596 28.5672 142.33 29.4238 143.849 30.591C145.368 31.7582 146.642 33.2132 147.598 34.8729L158.463 53.6708C159.42 55.3298 160.041 57.161 160.29 59.06C160.54 60.9589 160.413 62.8884 159.916 64.7383C159.42 66.5882 158.564 68.3221 157.398 69.8412C156.231 71.3603 154.777 72.6347 153.118 73.5917L145.826 77.8135C144.72 78.4523 143.801 79.3704 143.161 80.4761C142.521 81.5817 142.183 82.8361 142.18 84.1135C142.155 85.422 142.479 86.7136 143.12 87.8545C143.761 88.9955 144.695 89.9445 145.826 90.6031L153.118 94.825C154.777 95.782 156.231 97.0564 157.398 98.5755C158.564 100.095 159.42 101.828 159.916 103.678C160.413 105.528 160.54 107.458 160.29 109.357C160.041 111.256 159.42 113.087 158.463 114.746L147.613 133.544C145.679 136.893 142.494 139.337 138.758 140.338C135.022 141.339 131.041 140.815 127.692 138.881L120.335 134.637C119.223 134.018 117.97 133.698 116.698 133.707C115.425 133.717 114.177 134.057 113.075 134.693C111.973 135.329 111.055 136.24 110.41 137.337C109.766 138.434 109.417 139.68 109.397 140.952V149.833C109.397 153.701 107.861 157.41 105.126 160.145C102.391 162.88 98.6815 164.417 94.8138 164.417H72.9388C69.071 164.417 65.3617 162.88 62.6268 160.145C59.8919 157.41 58.3554 153.701 58.3554 149.833V140.967C58.3535 139.7 58.0191 138.457 57.3857 137.36C56.7523 136.263 55.8421 135.352 54.7461 134.718C53.6363 134.059 52.3723 133.705 51.0818 133.691C49.7913 133.676 48.52 134.003 47.3961 134.637L40.0315 138.896C38.3715 139.855 36.5387 140.477 34.6379 140.728C32.7371 140.978 30.8056 140.851 28.954 140.353C27.1024 139.856 25.367 138.999 23.847 137.831C22.3271 136.662 21.0524 135.205 20.0961 133.544L9.23877 114.746C8.28156 113.087 7.66051 111.256 7.41107 109.357C7.16163 107.458 7.2887 105.528 7.78502 103.678C8.28134 101.828 9.13719 100.095 10.3037 98.5755C11.4702 97.0564 12.9245 95.782 14.5836 94.825Z" stroke="#E5B201" stroke-width="4" mask="url(#path-1-inside-1_1_16)"/>
<mask id="path-2-inside-2_1_16" fill="white">
<path d="M99.6577 108.418C94.8612 111.623 89.2222 113.333 83.4535 113.333C75.7181 113.333 68.2994 110.26 62.8296 104.791C57.3598 99.3208 54.2869 91.9022 54.2869 84.1667C54.2869 78.3981 55.9975 72.759 59.2023 67.9625C62.4072 63.1661 66.9624 59.4277 72.2919 57.2202C77.6214 55.0126 83.4859 54.435 89.1437 55.5604C94.8014 56.6858 99.9985 59.4637 104.077 63.5427C108.157 67.6218 110.934 72.8188 112.06 78.4765C113.185 84.1343 112.608 89.9988 110.4 95.3283C108.192 100.658 104.454 105.213 99.6577 108.418Z"/>
</mask>
<path d="M99.6577 108.418C94.8612 111.623 89.2222 113.333 83.4535 113.333C75.7181 113.333 68.2994 110.26 62.8296 104.791C57.3598 99.3208 54.2869 91.9022 54.2869 84.1667C54.2869 78.3981 55.9975 72.759 59.2023 67.9625C62.4072 63.1661 66.9624 59.4277 72.2919 57.2202C77.6214 55.0126 83.4859 54.435 89.1437 55.5604C94.8014 56.6858 99.9985 59.4637 104.077 63.5427C108.157 67.6218 110.934 72.8188 112.06 78.4765C113.185 84.1343 112.608 89.9988 110.4 95.3283C108.192 100.658 104.454 105.213 99.6577 108.418Z" stroke="#E5B201" stroke-width="4" mask="url(#path-2-inside-2_1_16)"/>
<path d="M76.8544 109.375C82.623 109.375 88.2621 107.664 93.0585 104.46C97.855 101.255 101.593 96.6994 103.801 91.3699C106.008 86.0404 106.586 80.176 105.461 74.5182C104.335 68.8604 101.557 63.6634 97.4784 59.5844C93.3993 55.5053 88.2023 52.7275 82.5445 51.6021C76.8868 50.4767 71.0223 51.0543 65.6928 53.2618C60.3633 55.4694 55.8081 59.2078 52.6032 64.0042C49.3983 68.8006 47.6877 74.4397 47.6877 80.2083C47.6877 87.9438 50.7606 95.3625 56.2304 100.832C61.7003 106.302 69.1189 109.375 76.8544 109.375ZM76.8544 65.625C79.7387 65.625 82.5582 66.4803 84.9565 68.0827C87.3547 69.6852 89.2239 71.9628 90.3277 74.6275C91.4314 77.2923 91.7202 80.2245 91.1575 83.0534C90.5948 85.8823 89.2059 88.4808 87.1664 90.5203C85.1269 92.5598 82.5284 93.9487 79.6995 94.5114C76.8706 95.0741 73.9384 94.7853 71.2736 93.6816C68.6088 92.5778 66.3312 90.7086 64.7288 88.3104C63.1264 85.9122 62.2711 83.0926 62.2711 80.2083C62.2711 76.3406 63.8075 72.6313 66.5424 69.8964C69.2773 67.1614 72.9867 65.625 76.8544 65.625ZM14.8752 86.6031L7.58356 90.825C5.9245 91.782 4.47019 93.0564 3.30369 94.5755C2.13719 96.0945 1.28134 97.8285 0.785023 99.6784C0.288703 101.528 0.161633 103.458 0.411069 105.357C0.660505 107.256 1.28156 109.087 2.23877 110.746L13.0961 129.544C14.0524 131.205 15.3271 132.662 16.847 133.831C18.367 134.999 20.1024 135.856 21.954 136.353C23.8056 136.851 25.7371 136.978 27.6379 136.728C29.5387 136.477 31.3715 135.855 33.0315 134.896L40.3961 130.637C41.52 130.003 42.7913 129.676 44.0818 129.691C45.3723 129.705 46.6363 130.059 47.7461 130.718C48.8421 131.352 49.7523 132.263 50.3857 133.36C51.0191 134.457 51.3535 135.7 51.3554 136.967V145.833C51.3554 149.701 52.8919 153.41 55.6268 156.145C58.3617 158.88 62.071 160.417 65.9388 160.417H87.8138C91.6815 160.417 95.3908 158.88 98.1258 156.145C100.861 153.41 102.397 149.701 102.397 145.833V136.952C102.417 135.68 102.766 134.434 103.41 133.337C104.055 132.24 104.973 131.329 106.075 130.693C107.177 130.057 108.425 129.717 109.698 129.707C110.97 129.698 112.223 130.018 113.335 130.637L120.692 134.881C124.041 136.815 128.022 137.339 131.758 136.338C135.494 135.337 138.679 132.893 140.613 129.544L151.463 110.746C152.42 109.087 153.041 107.256 153.29 105.357C153.54 103.458 153.413 101.528 152.916 99.6784C152.42 97.8285 151.564 96.0945 150.398 94.5755C149.231 93.0564 147.777 91.782 146.118 90.825L138.826 86.6031C137.695 85.9445 136.761 84.9955 136.12 83.8545C135.479 82.7136 135.155 81.422 135.18 80.1135C135.183 78.8361 135.521 77.5817 136.161 76.4761C136.801 75.3704 137.72 74.4523 138.826 73.8135L146.118 69.5917C147.777 68.6347 149.231 67.3603 150.398 65.8412C151.564 64.3221 152.42 62.5882 152.916 60.7383C153.413 58.8884 153.54 56.9589 153.29 55.06C153.041 53.161 152.42 51.3298 151.463 49.6708L140.598 30.8729C139.642 29.2132 138.368 27.7582 136.849 26.591C135.33 25.4238 133.596 24.5672 131.746 24.0702C129.897 23.5732 127.967 23.4455 126.068 23.6944C124.168 23.9433 122.337 24.5639 120.677 25.5208L113.313 29.7719C112.201 30.3937 110.947 30.716 109.673 30.707C108.399 30.698 107.149 30.3582 106.047 29.7207C104.944 29.0832 104.025 28.1701 103.382 27.0708C102.738 25.9715 102.391 24.7238 102.375 23.45V14.5833C102.375 10.7156 100.839 7.00626 98.1039 4.27136C95.369 1.53645 91.6596 0 87.7919 0H65.9169C62.0492 0 58.3398 1.53645 55.6049 4.27136C52.87 7.00626 51.3336 10.7156 51.3336 14.5833V24.0187C51.3334 25.1131 51.0448 26.188 50.4969 27.1353C49.949 28.0825 49.1612 28.8687 48.2127 29.4146L47.0898 30.0635C46.1408 30.603 45.0679 30.8867 43.9763 30.8867C42.8846 30.8867 41.8117 30.603 40.8627 30.0635L33.0315 25.5208C31.3727 24.5622 29.5412 23.9398 27.6418 23.6892C25.7424 23.4386 23.8122 23.5648 21.9615 24.0605C20.1108 24.5561 18.376 25.4116 16.856 26.578C15.3361 27.7444 14.0609 29.1989 13.1034 30.8583L2.25336 49.6781C0.321278 53.0261 -0.202585 57.0041 0.796883 60.7381C1.79635 64.4721 4.23738 67.6565 7.58356 69.5917L14.8752 73.8062C16.0051 74.4678 16.9385 75.4184 17.5792 76.5602C18.22 77.7021 18.5451 78.994 18.5211 80.3031C18.5229 81.5815 18.1866 82.8375 17.5464 83.944C16.9061 85.0504 15.9845 85.9678 14.8752 86.6031ZM22.1669 61.1771L14.8752 56.9625L25.7398 38.1646L33.5711 42.6854C36.7326 44.5022 40.3153 45.4583 43.9617 45.4583C47.6081 45.4583 51.1908 44.5022 54.3523 42.6854L55.4752 42.0437C58.6415 40.2166 61.2725 37.5899 63.1049 34.4267C64.9374 31.2634 65.907 27.6744 65.9169 24.0187V14.5833H87.7919V23.45C87.807 27.2842 88.827 31.0474 90.7502 34.3645C92.6733 37.6815 95.4324 40.4365 98.7523 42.3547C102.072 44.2728 105.837 45.2872 109.671 45.2966C113.505 45.306 117.275 44.3102 120.604 42.4083L127.947 38.1646L138.834 56.9625L131.542 61.1771C128.222 63.1213 125.468 65.9005 123.555 69.2385C121.641 72.5765 120.634 76.3571 120.634 80.2047C120.634 84.0522 121.641 87.8328 123.555 91.1708C125.468 94.5088 128.222 97.288 131.542 99.2323L138.834 103.454L127.984 122.252L120.604 118.008C117.275 116.106 113.505 115.111 109.671 115.12C105.837 115.129 102.072 116.144 98.7523 118.062C95.4324 119.98 92.6733 122.735 90.7502 126.052C88.827 129.369 87.807 133.132 87.7919 136.967V145.833H65.9169V136.967C65.9061 133.131 64.8889 129.365 62.9668 126.045C61.0447 122.726 58.2851 119.969 54.9637 118.05C51.6423 116.131 47.8755 115.117 44.0395 115.109C40.2036 115.102 36.433 116.102 33.1044 118.008L25.7617 122.252L14.8752 103.454L22.1669 99.2323C25.4871 97.288 28.2407 94.5088 30.1542 91.1708C32.0677 87.8328 33.0745 84.0522 33.0745 80.2047C33.0745 76.3571 32.0677 72.5765 30.1542 69.2385C28.2407 65.9005 25.4871 63.1213 22.1669 61.1771Z" fill="#1A2732"/>
<mask id="path-4-inside-3_1_16" fill="white">
<path d="M172.2 119.013L178.275 115.495C179.2 114.966 179.968 114.201 180.501 113.279C181.035 112.357 181.315 111.311 181.313 110.245C181.333 109.155 181.062 108.078 180.528 107.127C179.995 106.175 179.217 105.383 178.275 104.832L172.2 101.32C169.411 99.7077 167.377 97.0543 166.545 93.943C165.712 90.8316 166.148 87.5169 167.758 84.7272L176.799 69.0457C177.597 67.663 178.659 66.451 179.926 65.4791C181.192 64.5072 182.638 63.7944 184.18 63.3814C185.722 62.9683 187.33 62.8632 188.913 63.072C190.496 63.2808 192.022 63.7994 193.404 64.5982L199.929 68.3834C200.72 68.8329 201.614 69.0693 202.524 69.0693C203.433 69.0693 204.327 68.8329 205.118 68.3834L206.054 67.8427C206.844 67.3878 207.501 66.7327 207.957 65.9434C208.414 65.1541 208.654 64.2584 208.654 63.3466V55.4845C208.654 52.2618 209.934 49.171 212.213 46.8921C214.492 44.6132 217.583 43.333 220.806 43.333H239.033C242.256 43.333 245.347 44.6132 247.626 46.8921C249.904 49.171 251.185 52.2618 251.185 55.4845V62.8727C251.198 63.934 251.487 64.9737 252.023 65.8897C252.56 66.8057 253.325 67.5666 254.244 68.0977C255.163 68.6289 256.204 68.9121 257.265 68.9196C258.327 68.9271 259.372 68.6585 260.298 68.1404L266.435 64.5982C267.817 63.8009 269.344 63.2837 270.926 63.0763C272.509 62.8689 274.117 62.9753 275.658 63.3895C277.2 63.8036 278.644 64.5173 279.91 65.4899C281.175 66.4625 282.237 67.6749 283.034 69.0578L292.087 84.7212C292.884 86.1035 293.402 87.6293 293.61 89.2117C293.818 90.794 293.712 92.4017 293.298 93.9431C292.885 95.4845 292.171 96.9293 291.199 98.1951C290.227 99.4609 289.016 100.523 287.633 101.32L281.557 104.838C280.636 105.37 279.87 106.135 279.337 107.057C278.803 107.978 278.522 109.023 278.52 110.088C278.498 111.178 278.768 112.254 279.302 113.205C279.837 114.155 280.615 114.946 281.557 115.495L287.633 119.013C289.016 119.81 290.227 120.872 291.199 122.138C292.171 123.404 292.885 124.848 293.298 126.39C293.712 127.931 293.818 129.539 293.61 131.121C293.402 132.704 292.884 134.23 292.087 135.612L283.046 151.275C281.435 154.066 278.78 156.103 275.668 156.937C272.555 157.771 269.238 157.334 266.447 155.723L260.317 152.187C259.39 151.67 258.346 151.403 257.286 151.412C256.226 151.42 255.186 151.703 254.267 152.233C253.349 152.763 252.584 153.522 252.047 154.436C251.51 155.35 251.219 156.388 251.203 157.448V164.848C251.203 168.071 249.923 171.162 247.644 173.441C245.365 175.72 242.274 177 239.051 177H220.824C217.601 177 214.51 175.72 212.232 173.441C209.953 171.162 208.672 168.071 208.672 164.848V157.46C208.671 156.405 208.392 155.369 207.864 154.455C207.337 153.541 206.578 152.782 205.665 152.253C204.74 151.704 203.687 151.409 202.612 151.398C201.536 151.386 200.477 151.658 199.541 152.187L193.404 155.735C192.021 156.534 190.494 157.053 188.91 157.261C187.326 157.47 185.717 157.364 184.174 156.949C182.631 156.535 181.185 155.821 179.918 154.847C178.652 153.874 177.59 152.66 176.793 151.275L167.746 135.612C166.948 134.23 166.431 132.704 166.223 131.121C166.015 129.539 166.121 127.931 166.535 126.39C166.948 124.848 167.661 123.404 168.633 122.138C169.605 120.872 170.817 119.81 172.2 119.013Z"/>
</mask>
<path d="M172.2 119.013L178.275 115.495C179.2 114.966 179.968 114.201 180.501 113.279C181.035 112.357 181.315 111.311 181.313 110.245C181.333 109.155 181.062 108.078 180.528 107.127C179.995 106.175 179.217 105.383 178.275 104.832L172.2 101.32C169.411 99.7077 167.377 97.0543 166.545 93.943C165.712 90.8316 166.148 87.5169 167.758 84.7272L176.799 69.0457C177.597 67.663 178.659 66.451 179.926 65.4791C181.192 64.5072 182.638 63.7944 184.18 63.3814C185.722 62.9683 187.33 62.8632 188.913 63.072C190.496 63.2808 192.022 63.7994 193.404 64.5982L199.929 68.3834C200.72 68.8329 201.614 69.0693 202.524 69.0693C203.433 69.0693 204.327 68.8329 205.118 68.3834L206.054 67.8427C206.844 67.3878 207.501 66.7327 207.957 65.9434C208.414 65.1541 208.654 64.2584 208.654 63.3466V55.4845C208.654 52.2618 209.934 49.171 212.213 46.8921C214.492 44.6132 217.583 43.333 220.806 43.333H239.033C242.256 43.333 245.347 44.6132 247.626 46.8921C249.904 49.171 251.185 52.2618 251.185 55.4845V62.8727C251.198 63.934 251.487 64.9737 252.023 65.8897C252.56 66.8057 253.325 67.5666 254.244 68.0977C255.163 68.6289 256.204 68.9121 257.265 68.9196C258.327 68.9271 259.372 68.6585 260.298 68.1404L266.435 64.5982C267.817 63.8009 269.344 63.2837 270.926 63.0763C272.509 62.8689 274.117 62.9753 275.658 63.3895C277.2 63.8036 278.644 64.5173 279.91 65.4899C281.175 66.4625 282.237 67.6749 283.034 69.0578L292.087 84.7212C292.884 86.1035 293.402 87.6293 293.61 89.2117C293.818 90.794 293.712 92.4017 293.298 93.9431C292.885 95.4845 292.171 96.9293 291.199 98.1951C290.227 99.4609 289.016 100.523 287.633 101.32L281.557 104.838C280.636 105.37 279.87 106.135 279.337 107.057C278.803 107.978 278.522 109.023 278.52 110.088C278.498 111.178 278.768 112.254 279.302 113.205C279.837 114.155 280.615 114.946 281.557 115.495L287.633 119.013C289.016 119.81 290.227 120.872 291.199 122.138C292.171 123.404 292.885 124.848 293.298 126.39C293.712 127.931 293.818 129.539 293.61 131.121C293.402 132.704 292.884 134.23 292.087 135.612L283.046 151.275C281.435 154.066 278.78 156.103 275.668 156.937C272.555 157.771 269.238 157.334 266.447 155.723L260.317 152.187C259.39 151.67 258.346 151.403 257.286 151.412C256.226 151.42 255.186 151.703 254.267 152.233C253.349 152.763 252.584 153.522 252.047 154.436C251.51 155.35 251.219 156.388 251.203 157.448V164.848C251.203 168.071 249.923 171.162 247.644 173.441C245.365 175.72 242.274 177 239.051 177H220.824C217.601 177 214.51 175.72 212.232 173.441C209.953 171.162 208.672 168.071 208.672 164.848V157.46C208.671 156.405 208.392 155.369 207.864 154.455C207.337 153.541 206.578 152.782 205.665 152.253C204.74 151.704 203.687 151.409 202.612 151.398C201.536 151.386 200.477 151.658 199.541 152.187L193.404 155.735C192.021 156.534 190.494 157.053 188.91 157.261C187.326 157.47 185.717 157.364 184.174 156.949C182.631 156.535 181.185 155.821 179.918 154.847C178.652 153.874 177.59 152.66 176.793 151.275L167.746 135.612C166.948 134.23 166.431 132.704 166.223 131.121C166.015 129.539 166.121 127.931 166.535 126.39C166.948 124.848 167.661 123.404 168.633 122.138C169.605 120.872 170.817 119.81 172.2 119.013Z" stroke="#E5B201" stroke-width="4" mask="url(#path-4-inside-3_1_16)"/>
<mask id="path-5-inside-4_1_16" fill="white">
<path d="M243.087 130.339C239.091 133.01 234.392 134.435 229.585 134.435C223.14 134.435 216.958 131.874 212.4 127.317C207.843 122.759 205.282 116.577 205.282 110.132C205.282 105.325 206.708 100.626 209.378 96.6297C212.049 92.6331 215.844 89.5181 220.285 87.6786C224.726 85.8392 229.612 85.3579 234.327 86.2957C239.041 87.2334 243.371 89.548 246.77 92.9469C250.169 96.3457 252.484 100.676 253.422 105.39C254.359 110.105 253.878 114.991 252.039 119.432C250.199 123.873 247.084 127.669 243.087 130.339Z"/>
</mask>
<path d="M243.087 130.339C239.091 133.01 234.392 134.435 229.585 134.435C223.14 134.435 216.958 131.874 212.4 127.317C207.843 122.759 205.282 116.577 205.282 110.132C205.282 105.325 206.708 100.626 209.378 96.6297C212.049 92.6331 215.844 89.5181 220.285 87.6786C224.726 85.8392 229.612 85.3579 234.327 86.2957C239.041 87.2334 243.371 89.548 246.77 92.9469C250.169 96.3457 252.484 100.676 253.422 105.39C254.359 110.105 253.878 114.991 252.039 119.432C250.199 123.873 247.084 127.669 243.087 130.339Z" stroke="#E5B201" stroke-width="4" mask="url(#path-5-inside-4_1_16)"/>
<path d="M224.087 131.137C228.893 131.137 233.592 129.711 237.589 127.041C241.585 124.37 244.7 120.575 246.54 116.134C248.379 111.693 248.861 106.807 247.923 102.092C246.985 97.3779 244.67 93.0475 241.272 89.6486C237.873 86.2498 233.542 83.9351 228.828 82.9974C224.114 82.0596 219.227 82.5409 214.786 84.3804C210.345 86.2198 206.55 89.3348 203.879 93.3314C201.209 97.328 199.784 102.027 199.784 106.834C199.784 113.279 202.344 119.461 206.902 124.018C211.46 128.576 217.641 131.137 224.087 131.137ZM224.087 94.682C226.49 94.682 228.839 95.3946 230.838 96.7299C232.836 98.0651 234.394 99.9629 235.313 102.183C236.233 104.404 236.474 106.847 236.005 109.204C235.536 111.561 234.379 113.727 232.679 115.426C230.98 117.125 228.815 118.283 226.457 118.752C224.1 119.22 221.657 118.98 219.436 118.06C217.216 117.14 215.318 115.583 213.983 113.585C212.648 111.586 211.935 109.237 211.935 106.834C211.935 103.611 213.215 100.52 215.494 98.2411C217.773 95.9622 220.864 94.682 224.087 94.682ZM172.443 112.162L166.367 115.68C164.984 116.477 163.773 117.539 162.801 118.805C161.829 120.071 161.116 121.515 160.702 123.057C160.288 124.598 160.183 126.206 160.39 127.788C160.598 129.371 161.116 130.897 161.913 132.279L170.96 147.942C171.757 149.327 172.819 150.541 174.086 151.514C175.352 152.488 176.798 153.202 178.341 153.616C179.884 154.031 181.493 154.137 183.077 153.928C184.661 153.72 186.188 153.201 187.571 152.402L193.708 148.854C194.644 148.325 195.704 148.053 196.779 148.065C197.854 148.076 198.907 148.371 199.832 148.92C200.745 149.449 201.504 150.208 202.032 151.122C202.559 152.036 202.838 153.072 202.84 154.127V161.515C202.84 164.738 204.12 167.829 206.399 170.108C208.678 172.387 211.768 173.667 214.991 173.667H233.219C236.441 173.667 239.532 172.387 241.811 170.108C244.09 167.829 245.37 164.738 245.37 161.515V154.115C245.386 153.055 245.677 152.017 246.214 151.103C246.751 150.189 247.516 149.43 248.435 148.9C249.353 148.37 250.393 148.087 251.453 148.079C252.513 148.07 253.558 148.337 254.484 148.854L260.614 152.39C263.405 154.001 266.722 154.438 269.835 153.604C272.948 152.77 275.602 150.733 277.213 147.942L286.254 132.279C287.052 130.897 287.569 129.371 287.777 127.788C287.985 126.206 287.879 124.598 287.465 123.057C287.052 121.515 286.339 120.071 285.367 118.805C284.395 117.539 283.183 116.477 281.8 115.68L275.725 112.162C274.782 111.613 274.004 110.822 273.47 109.872C272.936 108.921 272.665 107.845 272.687 106.755C272.689 105.69 272.971 104.645 273.504 103.724C274.037 102.802 274.803 102.037 275.725 101.505L281.8 97.9872C283.183 97.1898 284.395 96.1279 285.367 94.8621C286.339 93.5963 287.052 92.1515 287.465 90.6101C287.879 89.0687 287.985 87.461 287.777 85.8787C287.569 84.2963 287.052 82.7705 286.254 81.3882L277.201 65.7248C276.404 64.3419 275.343 63.1295 274.077 62.1569C272.812 61.1843 271.367 60.4706 269.825 60.0565C268.284 59.6423 266.676 59.5359 265.094 59.7433C263.511 59.9507 261.985 60.4679 260.602 61.2652L254.466 64.8074C253.539 65.3255 252.494 65.5941 251.433 65.5866C250.371 65.5791 249.33 65.2959 248.411 64.7647C247.492 64.2336 246.727 63.4727 246.191 62.5567C245.654 61.6407 245.365 60.601 245.352 59.5397V52.1515C245.352 48.9288 244.072 45.838 241.793 43.5591C239.514 41.2802 236.423 40 233.2 40H214.973C211.75 40 208.659 41.2802 206.381 43.5591C204.102 45.838 202.821 48.9288 202.821 52.1515V60.0136C202.821 60.9254 202.581 61.8211 202.124 62.6104C201.668 63.3997 201.011 64.0548 200.221 64.5097L199.285 65.0504C198.495 65.4999 197.601 65.7363 196.691 65.7363C195.781 65.7363 194.887 65.4999 194.097 65.0504L187.571 61.2652C186.189 60.4664 184.663 59.9478 183.08 59.739C181.498 59.5302 179.889 59.6353 178.347 60.0484C176.805 60.4614 175.36 61.1742 174.093 62.1461C172.827 63.118 171.764 64.33 170.966 65.7127L161.925 81.3942C160.316 84.1839 159.879 87.4986 160.712 90.61C161.545 93.7213 163.579 96.3747 166.367 97.9872L172.443 101.499C173.384 102.05 174.162 102.842 174.696 103.794C175.23 104.745 175.501 105.822 175.48 106.912C175.482 107.978 175.202 109.024 174.668 109.946C174.135 110.868 173.367 111.633 172.443 112.162ZM178.518 90.9757L172.443 87.4639L181.496 71.8006L188.021 75.5676C190.655 77.0814 193.641 77.8781 196.679 77.8781C199.717 77.8781 202.702 77.0814 205.337 75.5676L206.273 75.0329C208.911 73.5104 211.103 71.3218 212.63 68.686C214.157 66.0502 214.965 63.0597 214.973 60.0136V52.1515H233.2V59.5397C233.213 62.7345 234.063 65.8702 235.665 68.6342C237.268 71.3981 239.567 73.6937 242.333 75.292C245.099 76.8903 248.236 77.7355 251.431 77.7434C254.626 77.7512 257.767 76.9214 260.541 75.3367L266.66 71.8006L275.731 87.4639L269.655 90.9757C266.888 92.5958 264.594 94.9116 263 97.6929C261.405 100.474 260.566 103.624 260.566 106.83C260.566 110.036 261.405 113.187 263 115.968C264.594 118.749 266.888 121.065 269.655 122.685L275.731 126.203L266.69 141.866L260.541 138.33C257.767 136.746 254.626 135.916 251.431 135.924C248.236 135.931 245.099 136.777 242.333 138.375C239.567 139.973 237.268 142.269 235.665 145.033C234.063 147.797 233.213 150.932 233.2 154.127V161.515H214.973V154.127C214.964 150.931 214.116 147.793 212.515 145.027C210.913 142.261 208.614 139.964 205.846 138.365C203.079 136.766 199.94 135.921 196.744 135.915C193.547 135.909 190.406 136.742 187.632 138.33L181.514 141.866L172.443 126.203L178.518 122.685C181.285 121.065 183.579 118.749 185.174 115.968C186.768 113.187 187.607 110.036 187.607 106.83C187.607 103.624 186.768 100.474 185.174 97.6929C183.579 94.9116 181.285 92.5958 178.518 90.9757Z" fill="#1A2732"/>
</svg>
