<svg width="384" height="164" viewBox="0 0 384 164" fill="none" xmlns="http://www.w3.org/2000/svg">
<path fill-rule="evenodd" clip-rule="evenodd" d="M236.322 28.2209C226.701 14.9428 212.701 8.30379 194.32 8.30379C175.94 8.30379 161.867 14.9428 152.103 28.2209C142.482 41.3562 137.671 60.4881 137.671 85.6165C137.671 110.745 142.482 130.091 152.103 143.655C161.867 157.218 175.94 164 194.32 164C212.701 164 226.701 157.218 236.322 143.655C246.087 130.091 250.969 110.745 250.969 85.6165C250.969 60.4881 246.087 41.3562 236.322 28.2209ZM153.777 29.448C144.524 42.0811 139.747 60.7048 139.747 85.6165C139.747 110.517 144.52 129.372 153.791 142.447C163.122 155.405 176.532 161.924 194.32 161.924C212.11 161.924 225.443 155.404 234.629 142.453L234.633 142.448L234.638 142.442C244.049 129.369 248.893 110.517 248.893 85.6165C248.893 60.7095 244.046 42.0907 234.656 29.4594L234.649 29.4492L234.641 29.439C225.462 16.7709 212.128 10.3797 194.32 10.3797C176.514 10.3797 163.101 16.7707 153.777 29.448ZM214.709 125.721L214.705 125.728C212.569 130.052 209.798 133.418 206.34 135.697C202.872 137.983 198.838 139.091 194.32 139.091C189.803 139.091 185.768 137.983 182.3 135.697C178.843 133.418 176.072 130.052 173.935 125.728L173.932 125.721L173.929 125.715C169.694 116.994 167.689 103.536 167.689 85.6165C167.689 67.7113 169.69 54.4379 173.948 46.1211C176.092 41.9334 178.871 38.68 182.329 36.4812C185.793 34.2782 189.817 33.2123 194.32 33.2123C198.823 33.2123 202.847 34.2782 206.312 36.4812C209.769 38.68 212.548 41.9334 214.692 46.1211C218.95 54.4379 220.951 67.7113 220.951 85.6165C220.951 103.536 218.946 116.994 214.712 125.715L214.709 125.721ZM74.3508 136.736V159.568H102.939V136.736C102.939 134.443 104.798 132.584 107.091 132.584H123.617V110.608H107.091C104.798 110.608 102.939 108.749 102.939 106.456V12.7355H78.9612L10.3782 111.538V132.584H70.1989C72.4919 132.584 74.3508 134.443 74.3508 136.736ZM74.3508 66.0015V106.456C74.3508 108.749 72.4919 110.608 70.1989 110.608H42.6022C39.266 110.608 37.2923 106.872 39.1723 104.116L66.769 63.6617C69.0711 60.2871 74.3508 61.9163 74.3508 66.0015ZM175.796 124.808C179.817 132.946 185.992 137.015 194.32 137.015C202.649 137.015 208.824 132.946 212.844 124.808C216.865 116.527 218.875 103.463 218.875 85.6165C218.875 67.7696 216.865 54.9198 212.844 47.0672C208.824 39.2146 202.649 35.2883 194.32 35.2883C185.992 35.2883 179.817 39.2146 175.796 47.0672C171.775 54.9198 169.765 67.7696 169.765 85.6165C169.765 103.463 171.775 116.527 175.796 124.808ZM332.658 136.736V159.568H361.246V136.736C361.246 134.443 363.105 132.584 365.398 132.584H381.924L381.924 110.608H365.398C363.105 110.608 361.246 108.749 361.246 106.456V12.7355L337.268 12.7355L268.685 111.538V132.584H328.506C330.799 132.584 332.658 134.443 332.658 136.736ZM332.658 66.0015V106.456C332.658 108.749 330.799 110.608 328.506 110.608H300.909C297.573 110.608 295.599 106.872 297.479 104.116L325.076 63.6617C327.378 60.2871 332.658 61.9163 332.658 66.0015ZM74.3508 161.644C73.2043 161.644 72.2748 160.715 72.2748 159.568V136.736C72.2748 135.589 71.3454 134.66 70.1989 134.66H10.3782C9.23168 134.66 8.30225 133.73 8.30225 132.584V111.538C8.30225 111.114 8.43155 110.701 8.67283 110.354L77.2558 11.5518C77.6438 10.9929 78.2809 10.6596 78.9612 10.6596H102.939C104.086 10.6596 105.015 11.589 105.015 12.7355V106.456C105.015 107.602 105.944 108.532 107.091 108.532H123.617C124.764 108.532 125.693 109.461 125.693 110.608V132.584C125.693 133.73 124.764 134.66 123.617 134.66H107.091C105.944 134.66 105.015 135.589 105.015 136.736V159.568C105.015 160.715 104.086 161.644 102.939 161.644H74.3508ZM70.1989 108.532C71.3454 108.532 72.2748 107.602 72.2748 106.456V66.0015C72.2748 63.9589 69.635 63.1443 68.484 64.8316L40.8873 105.286C39.9472 106.664 40.9341 108.532 42.6022 108.532H70.1989ZM330.582 159.568C330.582 160.715 331.511 161.644 332.658 161.644H361.246C362.392 161.644 363.322 160.715 363.322 159.568V136.736C363.322 135.589 364.251 134.66 365.398 134.66H381.924C383.07 134.66 384 133.73 384 132.584V110.608C384 109.461 383.07 108.532 381.924 108.532H365.398C364.251 108.532 363.322 107.602 363.322 106.456V12.7355C363.322 11.589 362.392 10.6596 361.246 10.6596H337.268C336.588 10.6596 335.951 10.9929 335.563 11.5518L266.98 110.354C266.738 110.701 266.609 111.114 266.609 111.538V132.584C266.609 133.73 267.539 134.66 268.685 134.66H328.506C329.652 134.66 330.582 135.589 330.582 136.736V159.568ZM330.582 106.456C330.582 107.602 329.652 108.532 328.506 108.532H300.909C299.241 108.532 298.254 106.664 299.194 105.286L326.791 64.8316C327.942 63.1443 330.582 63.9589 330.582 66.0015V106.456Z" fill="#E5B201"/>
<path d="M63.9726 153.34V126.356H0V102.584L69.5729 2.35578H96.7128V100.228H117.391V126.356H96.7128V153.34H63.9726ZM63.9726 100.228V50.9707L30.3708 100.228H63.9726Z" fill="#1A2732"/>
<path d="M186.018 155.696C167.637 155.696 153.565 148.914 143.8 135.351C134.179 121.787 129.369 102.441 129.369 77.3127C129.369 52.1843 134.179 33.0524 143.8 19.9171C153.565 6.63904 167.637 0 186.018 0C204.398 0 218.399 6.63904 228.02 19.9171C237.785 33.0524 242.667 52.1843 242.667 77.3127C242.667 102.441 237.785 121.787 228.02 135.351C218.399 148.914 204.398 155.696 186.018 155.696ZM186.018 128.712C194.347 128.712 200.521 124.643 204.542 116.504C208.563 108.223 210.573 95.1596 210.573 77.3127C210.573 59.4658 208.563 46.6161 204.542 38.7634C200.521 30.9108 194.347 26.9845 186.018 26.9845C177.689 26.9845 171.515 30.9108 167.494 38.7634C163.473 46.6161 161.463 59.4658 161.463 77.3127C161.463 95.1596 163.473 108.223 167.494 116.504C171.515 124.643 177.689 128.712 186.018 128.712Z" fill="#1A2732"/>
<path d="M322.279 153.34V126.356H258.307V102.584L327.88 2.35578H355.02V100.228H375.698V126.356H355.02V153.34H322.279ZM322.279 100.228V50.9707L288.678 100.228H322.279Z" fill="#1A2732"/>
</svg>
