<svg width="24" height="24" viewBox="0 0 24 24" fill="none" xmlns="http://www.w3.org/2000/svg">
<rect width="24" height="24" rx="12" fill="#009940"/>
<path d="M12.0003 4.6665C10.5499 4.6665 9.13211 5.0966 7.92615 5.90239C6.72019 6.70819 5.78025 7.8535 5.22521 9.19349C4.67017 10.5335 4.52495 12.008 4.8079 13.4305C5.09086 14.853 5.78929 16.1597 6.81488 17.1853C7.84046 18.2109 9.14714 18.9093 10.5697 19.1923C11.9922 19.4752 13.4667 19.33 14.8067 18.775C16.1467 18.2199 17.292 17.28 18.0978 16.074C18.9036 14.8681 19.3337 13.4502 19.3337 11.9998C19.3314 10.0556 18.558 8.19169 17.1832 6.81692C15.8085 5.44215 13.9445 4.6688 12.0003 4.6665ZM12.0003 17.9998C10.8136 17.9998 9.6536 17.6479 8.66691 16.9887C7.68021 16.3294 6.91118 15.3923 6.45705 14.2959C6.00293 13.1996 5.88411 11.9932 6.11562 10.8293C6.34713 9.66541 6.91857 8.59631 7.75769 7.7572C8.5968 6.91808 9.6659 6.34664 10.8298 6.11513C11.9937 5.88361 13.2001 6.00243 14.2964 6.45656C15.3928 6.91069 16.3299 7.67972 16.9891 8.66642C17.6484 9.65311 18.0003 10.8131 18.0003 11.9998C17.9984 13.5905 17.3656 15.1155 16.2408 16.2403C15.116 17.3651 13.591 17.9979 12.0003 17.9998ZM15.825 9.8825C15.8842 9.94702 15.9301 10.0226 15.9601 10.1048C15.9901 10.1871 16.0036 10.2745 15.9998 10.3619C15.996 10.4494 15.975 10.5353 15.9381 10.6146C15.9011 10.694 15.8489 10.7653 15.7843 10.8245L11.7843 14.4912C11.6577 14.6073 11.4911 14.67 11.3193 14.6663C11.1475 14.6626 10.9838 14.5927 10.8623 14.4712L8.86233 12.4712C8.73732 12.3461 8.66713 12.1764 8.66719 11.9996C8.66726 11.8228 8.73757 11.6532 8.86266 11.5282C8.98776 11.4032 9.15738 11.333 9.33423 11.333C9.51108 11.3331 9.68066 11.4034 9.80566 11.5285L11.3543 13.0772L14.8837 9.84184C15.0139 9.72251 15.1862 9.65976 15.3627 9.66739C15.5392 9.67501 15.7055 9.75238 15.825 9.8825Z" fill="white"/>
</svg>
