<svg version="1.2" xmlns="http://www.w3.org/2000/svg" viewBox="0 0 38 24" width="38" height="24">
	<title>ERROR_BTN-svg</title>
	<defs>
		<clipPath clipPathUnits="userSpaceOnUse" id="cp1">
			<path d="m4 4h16v16h-16z"/>
		</clipPath>
	</defs>
	<style>
		.s0 { fill: #971a11 } 
		.s1 { fill: #ffffff } 
	</style>
	<path id="Layer" class="s0" d="m0 12c0-6.6 5.4-12 12-12h14c6.6 0 12 5.4 12 12 0 6.6-5.4 12-12 12h-14c-6.6 0-12-5.4-12-12z"/>
	<g id="Clip-Path" clip-path="url(#cp1)">
		<g id="Layer">
			<path id="Layer" fill-rule="evenodd" class="s1" d="m17.2 6.8c1.4 1.4 2.1 3.3 2.1 5.2 0 1.5-0.4 2.9-1.2 4.1-0.8 1.2-2 2.1-3.3 2.7-1.3 0.5-2.8 0.7-4.2 0.4-1.5-0.3-2.8-1-3.8-2-1-1-1.7-2.3-2-3.8-0.3-1.4-0.1-2.9 0.4-4.2 0.6-1.3 1.5-2.5 2.7-3.3 1.2-0.8 2.6-1.2 4.1-1.2 1.9 0 3.8 0.7 5.2 2.1zm-1 9.4c1.2-1.1 1.8-2.6 1.8-4.2 0-1.2-0.4-2.3-1-3.3-0.7-1-1.6-1.8-2.7-2.2-1.1-0.5-2.3-0.6-3.5-0.4-1.1 0.2-2.2 0.8-3 1.7-0.9 0.8-1.5 1.9-1.7 3-0.2 1.2-0.1 2.4 0.4 3.5 0.4 1.1 1.2 2 2.2 2.7 1 0.6 2.1 1 3.3 1 1.6 0 3.1-0.6 4.2-1.8zm-3.5-6.9h-1.4v-1.3h1.4zm0 6.7h-1.4v-5.4h1.4z"/>
		</g>
	</g>
</svg>