<svg width="67" height="67" viewBox="0 0 67 67" fill="none" xmlns="http://www.w3.org/2000/svg">
<path d="M8.07995 46C12.6957 50.6223 18.8425 53.3971 25.3623 53.8017C31.882 54.2063 38.3247 52.2128 43.4766 48.1967L61.2033 65.9233C61.832 66.5305 62.674 66.8665 63.5479 66.8589C64.4219 66.8513 65.258 66.5007 65.876 65.8827C66.494 65.2647 66.8446 64.4286 66.8522 63.5547C66.8598 62.6807 66.5238 61.8387 65.9166 61.21L48.1899 43.4833C52.3843 38.1005 54.3673 31.3205 53.7345 24.5259C53.1018 17.7313 49.901 11.434 44.7849 6.91819C39.6688 2.40242 33.0227 0.00835752 26.2022 0.224243C19.3816 0.440129 12.9002 3.24971 8.07995 8.07998C5.58927 10.5694 3.61349 13.5251 2.26547 16.7784C0.91746 20.0316 0.223633 23.5185 0.223633 27.04C0.223633 30.5614 0.91746 34.0484 2.26547 37.3016C3.61349 40.5548 5.58927 43.5106 8.07995 46ZM12.7933 12.8C16.0885 9.50481 20.4244 7.45412 25.062 6.99731C29.6997 6.54049 34.3523 7.70581 38.2272 10.2947C42.102 12.8836 44.9593 16.736 46.3123 21.1954C47.6653 25.6548 47.4302 30.4453 45.6472 34.7508C43.8641 39.0564 40.6434 42.6105 36.5337 44.8076C32.424 47.0047 27.6797 47.709 23.109 46.8003C18.5383 45.8917 14.4241 43.4264 11.4673 39.8244C8.51045 36.2225 6.89398 31.7068 6.89328 27.0466C6.88414 24.3986 7.40096 21.775 8.41377 19.3283C9.42658 16.8815 10.9152 14.6602 12.7933 12.7933V12.8Z" fill="#8F99A3"/>
</svg>
