<svg width="16" height="12" viewBox="0 0 16 12" fill="none" xmlns="http://www.w3.org/2000/svg">
<path d="M1.33366 5.33431H5.33366C5.51047 5.33431 5.68004 5.26407 5.80506 5.13905C5.93009 5.01402 6.00033 4.84445 6.00033 4.66764V0.667643C6.00033 0.490832 5.93009 0.321263 5.80506 0.196239C5.68004 0.0712144 5.51047 0.000976563 5.33366 0.000976562H1.33366C1.15685 0.000976563 0.987279 0.0712144 0.862254 0.196239C0.73723 0.321263 0.666992 0.490832 0.666992 0.667643V4.66764C0.666992 4.84445 0.73723 5.01402 0.862254 5.13905C0.987279 5.26407 1.15685 5.33431 1.33366 5.33431ZM2.00033 1.33431H4.66699V4.00098H2.00033V1.33431ZM15.3337 2.66764C15.3337 2.84445 15.2634 3.01402 15.1384 3.13905C15.0134 3.26407 14.8438 3.33431 14.667 3.33431H8.00033C7.82351 3.33431 7.65394 3.26407 7.52892 3.13905C7.4039 3.01402 7.33366 2.84445 7.33366 2.66764C7.33366 2.49083 7.4039 2.32126 7.52892 2.19624C7.65394 2.07121 7.82351 2.00098 8.00033 2.00098H14.667C14.8438 2.00098 15.0134 2.07121 15.1384 2.19624C15.2634 2.32126 15.3337 2.49083 15.3337 2.66764ZM15.3337 9.33431C15.3337 9.51112 15.2634 9.68069 15.1384 9.80571C15.0134 9.93074 14.8438 10.001 14.667 10.001H8.00033C7.82351 10.001 7.65394 9.93074 7.52892 9.80571C7.4039 9.68069 7.33366 9.51112 7.33366 9.33431C7.33366 9.1575 7.4039 8.98793 7.52892 8.8629C7.65394 8.73788 7.82351 8.66764 8.00033 8.66764H14.667C14.8438 8.66764 15.0134 8.73788 15.1384 8.8629C15.2634 8.98793 15.3337 9.1575 15.3337 9.33431ZM5.47166 8.13898L4.27633 9.33431L5.47166 10.5296C5.53533 10.5911 5.58612 10.6647 5.62106 10.746C5.656 10.8274 5.67439 10.9149 5.67516 11.0034C5.67593 11.0919 5.65906 11.1797 5.62554 11.2616C5.59202 11.3435 5.54252 11.418 5.47992 11.4806C5.41733 11.5432 5.34289 11.5927 5.26096 11.6262C5.17903 11.6597 5.09124 11.6766 5.00272 11.6758C4.9142 11.675 4.82673 11.6566 4.74539 11.6217C4.66405 11.5868 4.59049 11.536 4.52899 11.4723L3.33366 10.277L2.13833 11.4723C2.01259 11.5937 1.84419 11.6609 1.66939 11.6594C1.49459 11.6579 1.32739 11.5878 1.20378 11.4642C1.08017 11.3406 1.01006 11.1734 1.00854 10.9986C1.00702 10.8238 1.07422 10.6554 1.19566 10.5296L2.39099 9.33431L1.19566 8.13898C1.07422 8.01324 1.00702 7.84484 1.00854 7.67004C1.01006 7.49524 1.08017 7.32804 1.20378 7.20443C1.32739 7.08083 1.49459 7.01071 1.66939 7.00919C1.84419 7.00767 2.01259 7.07487 2.13833 7.19631L3.33366 8.39164L4.52899 7.19631C4.65473 7.07487 4.82313 7.00767 4.99793 7.00919C5.17272 7.01071 5.33993 7.08083 5.46354 7.20443C5.58714 7.32804 5.65726 7.49524 5.65877 7.67004C5.66029 7.84484 5.5931 8.01324 5.47166 8.13898V8.13898Z" fill="#3D2F00"/>
</svg>
